<svg width="24" height="24" viewBox="0 0 24 24" fill="none" xmlns="http://www.w3.org/2000/svg">
<path d="M0 12C0 5.37258 5.37258 0 12 0C18.6274 0 24 5.37258 24 12C24 18.6274 18.6274 24 12 24C5.37258 24 0 18.6274 0 12Z" fill="white"/>
<path d="M11.05 11.5H12.77C10.92 12.78 10.82 13.24 10.82 13.71C10.82 14.47 11.39 14.95 12.63 14.95H14.85C15.9 14.95 16.34 14.64 16.46 13.1C16.13 13.03 15.75 12.9 15.43 12.71C15.39 13.7 15.25 13.8 14.91 13.8H12.61C12.26 13.8 12.04 13.74 12.04 13.53C12.04 13.26 12.28 12.87 15.46 11.09C15.52 11.02 15.58 10.93 15.62 10.86L14.81 10.43L14.55 10.46H11.23C11.44 10.24 11.64 9.99 11.83 9.72H16.34V8.64H12.5C12.63 8.38 12.75 8.11 12.86 7.84L11.66 7.53C11.3 8.52 10.62 9.49 9.84 10.08C10.13 10.26 10.61 10.63 10.84 10.85C10.91 10.79 10.98 10.72 11.05 10.65V11.5ZM10.27 8.77C9.93 8.4 9.22 7.89 8.65 7.58L7.86 8.32C8.43 8.66 9.11 9.2 9.42 9.58L10.27 8.77ZM9.92 10.7C9.56 10.33 8.82 9.85 8.24 9.56L7.47 10.33C8.05 10.65 8.77 11.17 9.09 11.54L9.92 10.7ZM9.74 12.05H7.46V13.15H8.58V14.64C8.14 14.98 7.66 15.31 7.25 15.56L7.82 16.77C8.35 16.34 8.8 15.96 9.24 15.56C9.87 16.34 10.71 16.62 11.94 16.68C13.13 16.73 15.16 16.71 16.36 16.65C16.42 16.31 16.6 15.75 16.73 15.47C15.4 15.58 13.12 15.61 11.95 15.56C10.9 15.51 10.16 15.24 9.74 14.56V12.05Z" fill="#007F77"/>
<path d="M12 22C6.47715 22 2 17.5228 2 12H-2C-2 19.732 4.26801 26 12 26V22ZM22 12C22 17.5228 17.5228 22 12 22V26C19.732 26 26 19.732 26 12H22ZM12 2C17.5228 2 22 6.47715 22 12H26C26 4.26801 19.732 -2 12 -2V2ZM12 -2C4.26801 -2 -2 4.26801 -2 12H2C2 6.47715 6.47715 2 12 2V-2Z" fill="#007F77"/>
</svg>
