<svg width="24" height="24" viewBox="0 0 24 24" fill="none" xmlns="http://www.w3.org/2000/svg">
<path d="M0 12C0 5.37258 5.37258 0 12 0C18.6274 0 24 5.37258 24 12C24 18.6274 18.6274 24 12 24C5.37258 24 0 18.6274 0 12Z" fill="white"/>
<path d="M14.96 10.49H12.43V13.56C12.43 14.71 12.75 15.03 13.86 15.03H15.28C16.25 15.03 16.54 14.61 16.67 13.12C16.37 13.05 15.88 12.86 15.63 12.67C15.59 13.79 15.53 13.97 15.18 13.97H14.02C13.63 13.97 13.56 13.92 13.56 13.56V11.51H14.96V11.77H16.11V7.91H12.34V8.95H14.96V10.49ZM10.54 13.63H11.96V12.6H10.54V11.52H12.05V10.49H10.32V9.55H11.8V8.53H10.32V7.55H9.21V8.53H7.72V9.55H9.21V10.49H7.45V11.52H9.45V14.63C9.19 14.34 8.99 13.97 8.83 13.48C8.85 13.06 8.87 12.63 8.88 12.19L7.79 12.11C7.77 13.82 7.67 15.48 7.18 16.49C7.44 16.6 7.96 16.86 8.17 17C8.39 16.51 8.54 15.92 8.64 15.25C9.42 16.37 10.61 16.61 12.47 16.61H16.33C16.4 16.26 16.6 15.71 16.78 15.44C15.88 15.48 13.23 15.48 12.47 15.47C11.7 15.47 11.07 15.43 10.54 15.28V13.63Z" fill="#007F77"/>
<path d="M12 22C6.47715 22 2 17.5228 2 12H-2C-2 19.732 4.26801 26 12 26V22ZM22 12C22 17.5228 17.5228 22 12 22V26C19.732 26 26 19.732 26 12H22ZM12 2C17.5228 2 22 6.47715 22 12H26C26 4.26801 19.732 -2 12 -2V2ZM12 -2C4.26801 -2 -2 4.26801 -2 12H2C2 6.47715 6.47715 2 12 2V-2Z" fill="#007F77"/>
</svg>
