<svg width="44" height="44" viewBox="0 0 44 44" fill="none" xmlns="http://www.w3.org/2000/svg">
<rect width="44" height="44" rx="22" fill="#B9B9B9"/>
<path d="M29.5 17.5C29.5 17.1022 29.342 16.7206 29.0607 16.4393C28.7794 16.158 28.3978 16 28 16H24.25L29.5 25" stroke="white" stroke-width="1.125" stroke-linecap="round" stroke-linejoin="round"/>
<path d="M29.5 28.75C31.5711 28.75 33.25 27.0711 33.25 25C33.25 22.9289 31.5711 21.25 29.5 21.25C27.4289 21.25 25.75 22.9289 25.75 25C25.75 27.0711 27.4289 28.75 29.5 28.75Z" stroke="white" stroke-width="1.125" stroke-linecap="round" stroke-linejoin="round"/>
<path d="M14.5 28.75C16.5711 28.75 18.25 27.0711 18.25 25C18.25 22.9289 16.5711 21.25 14.5 21.25C12.4289 21.25 10.75 22.9289 10.75 25C10.75 27.0711 12.4289 28.75 14.5 28.75Z" stroke="white" stroke-width="1.125" stroke-linecap="round" stroke-linejoin="round"/>
<path d="M14.5 16H17.125L22.375 25" stroke="white" stroke-width="1.125" stroke-linecap="round" stroke-linejoin="round"/>
<path d="M25.9457 19H18.875L14.5 25" stroke="white" stroke-width="1.125" stroke-linecap="round" stroke-linejoin="round"/>
</svg>
