<svg width="32" height="32" viewBox="0 -2 32 36" fill="none" xmlns="http://www.w3.org/2000/svg">
<g filter="url(#filter0_b_11_1619)">
<path d="M0 16C0 7.16344 7.16344 0 16 0C24.8366 0 32 7.16344 32 16C32 24.8366 24.8366 32 16 32C7.16344 32 0 24.8366 0 16Z" fill="#06B1A7" fill-opacity="0.6"/>
<path d="M10.3368 10.9728L13.9996 21.5542C14.0341 21.6539 14.0992 21.7401 14.1857 21.8005C14.2721 21.8609 14.3754 21.8924 14.4808 21.8906C14.5863 21.8888 14.6884 21.8537 14.7727 21.7903C14.8569 21.7269 14.919 21.6385 14.95 21.5377L16.4223 16.753C16.4462 16.675 16.4889 16.6042 16.5466 16.5465C16.6043 16.4888 16.6752 16.4461 16.7531 16.4221L21.5378 14.9499C21.6386 14.9189 21.727 14.8568 21.7904 14.7726C21.8538 14.6883 21.8889 14.5861 21.8907 14.4807C21.8925 14.3753 21.861 14.272 21.8006 14.1856C21.7402 14.0991 21.654 14.034 21.5543 13.9995L10.9729 10.3367C10.8842 10.306 10.7887 10.3009 10.6972 10.3219C10.6058 10.343 10.5221 10.3893 10.4558 10.4557C10.3894 10.522 10.3431 10.6057 10.322 10.6971C10.301 10.7886 10.3061 10.8841 10.3368 10.9728V10.9728Z" stroke="white" stroke-width="0.75" stroke-linecap="round" stroke-linejoin="round"/>
<path d="M16 31C7.71573 31 1 24.2843 1 16H-1C-1 25.3888 6.61116 33 16 33V31ZM31 16C31 24.2843 24.2843 31 16 31V33C25.3888 33 33 25.3888 33 16H31ZM16 1C24.2843 1 31 7.71573 31 16H33C33 6.61116 25.3888 -1 16 -1V1ZM16 -1C6.61116 -1 -1 6.61116 -1 16H1C1 7.71573 7.71573 1 16 1V-1Z" fill="#035A55"/>
</g>
<defs>
<filter id="filter0_b_11_1619" x="-7" y="-7" width="46" height="46" filterUnits="userSpaceOnUse" color-interpolation-filters="sRGB">
<feFlood flood-opacity="0" result="BackgroundImageFix"/>
<feGaussianBlur in="BackgroundImage" stdDeviation="3.5"/>
<feComposite in2="SourceAlpha" operator="in" result="effect1_backgroundBlur_11_1619"/>
<feBlend mode="normal" in="SourceGraphic" in2="effect1_backgroundBlur_11_1619" result="shape"/>
</filter>
</defs>
</svg>
