<svg width="143" height="64" viewBox="0 0 143 64" fill="none" xmlns="http://www.w3.org/2000/svg">
<g filter="url(#filter0_d_5_1002)">
<path d="M12 28C12 16.9543 20.9543 8 32 8H111C122.046 8 131 16.9543 131 28C131 39.0457 122.046 48 111 48H32C20.9543 48 12 39.0457 12 28Z" fill="#007F77"/>
<path d="M36 21.2493C28.5 21.2493 25.5 28 25.5 28C25.5 28 28.5 34.7493 36 34.7493C43.5 34.7493 46.5 28 46.5 28C46.5 28 43.5 21.2493 36 21.2493Z" stroke="white" stroke-width="0.75" stroke-linecap="round" stroke-linejoin="round"/>
<path d="M36 31.7501C38.0711 31.7501 39.75 30.0711 39.75 28.0001C39.75 25.929 38.0711 24.2501 36 24.2501C33.9289 24.2501 32.25 25.929 32.25 28.0001C32.25 30.0711 33.9289 31.7501 36 31.7501Z" stroke="white" stroke-width="0.75" stroke-linecap="round" stroke-linejoin="round"/>
<path d="M59.504 28.44L61.604 24.432H62.996L60.14 29.676V33H58.856V29.724L56 24.432H57.404L59.504 28.44ZM69.2144 29.76C69.2144 30.832 68.9384 31.66 68.3864 32.244C67.8344 32.828 67.0904 33.12 66.1544 33.12C65.5704 33.12 65.0504 32.988 64.5944 32.724C64.1464 32.46 63.7904 32.08 63.5264 31.584C63.2704 31.08 63.1424 30.472 63.1424 29.76C63.1424 28.688 63.4144 27.864 63.9584 27.288C64.5024 26.704 65.2464 26.412 66.1904 26.412C66.7824 26.412 67.3024 26.544 67.7504 26.808C68.2064 27.064 68.5624 27.44 68.8184 27.936C69.0824 28.432 69.2144 29.04 69.2144 29.76ZM64.4504 29.76C64.4504 30.488 64.5864 31.056 64.8584 31.464C65.1384 31.872 65.5784 32.076 66.1784 32.076C66.7784 32.076 67.2144 31.872 67.4864 31.464C67.7664 31.056 67.9064 30.488 67.9064 29.76C67.9064 29.024 67.7664 28.46 67.4864 28.068C67.2064 27.668 66.7664 27.468 66.1664 27.468C65.5664 27.468 65.1304 27.668 64.8584 28.068C64.5864 28.46 64.4504 29.024 64.4504 29.76ZM76.5149 26.532V33H75.4949L75.3149 32.148H75.2549C75.0469 32.484 74.7589 32.732 74.3909 32.892C74.0229 33.044 73.6349 33.12 73.2269 33.12C72.4669 33.12 71.8869 32.932 71.4869 32.556C71.0869 32.18 70.8869 31.584 70.8869 30.768V26.532H72.1709V30.576C72.1709 31.576 72.6069 32.076 73.4789 32.076C74.1429 32.076 74.6029 31.88 74.8589 31.488C75.1149 31.096 75.2429 30.536 75.2429 29.808V26.532H76.5149ZM81.2775 24.432C82.3655 24.432 83.1895 24.592 83.7495 24.912C84.3175 25.232 84.6015 25.784 84.6015 26.568C84.6015 27.072 84.4655 27.492 84.1935 27.828C83.9295 28.156 83.5495 28.364 83.0535 28.452V28.512C83.3895 28.568 83.6935 28.672 83.9655 28.824C84.2455 28.976 84.4655 29.192 84.6255 29.472C84.7855 29.744 84.8655 30.104 84.8655 30.552C84.8655 31.328 84.5935 31.932 84.0495 32.364C83.5055 32.788 82.7695 33 81.8415 33H78.7695V24.432H81.2775ZM81.4935 28.008C82.1655 28.008 82.6255 27.9 82.8735 27.684C83.1295 27.468 83.2575 27.148 83.2575 26.724C83.2575 26.3 83.1055 25.996 82.8015 25.812C82.4975 25.62 82.0135 25.524 81.3495 25.524H80.0655V28.008H81.4935ZM80.0655 29.064V31.92H81.6375C82.3255 31.92 82.8055 31.784 83.0775 31.512C83.3575 31.24 83.4975 30.88 83.4975 30.432C83.4975 30.024 83.3535 29.696 83.0655 29.448C82.7855 29.192 82.2815 29.064 81.5535 29.064H80.0655ZM87.2685 24.072C87.4605 24.072 87.6285 24.128 87.7725 24.24C87.9165 24.352 87.9885 24.54 87.9885 24.804C87.9885 25.06 87.9165 25.248 87.7725 25.368C87.6285 25.48 87.4605 25.536 87.2685 25.536C87.0605 25.536 86.8845 25.48 86.7405 25.368C86.6045 25.248 86.5365 25.06 86.5365 24.804C86.5365 24.54 86.6045 24.352 86.7405 24.24C86.8845 24.128 87.0605 24.072 87.2685 24.072ZM87.8925 26.532V33H86.6205V26.532H87.8925ZM91.2701 28.44C91.2701 28.6 91.2621 28.792 91.2461 29.016C91.2301 29.24 91.2181 29.44 91.2101 29.616H91.2461C91.3341 29.496 91.4541 29.34 91.6061 29.148C91.7661 28.948 91.9061 28.784 92.0261 28.656L94.0061 26.532H95.4821L92.8781 29.304L95.6501 33H94.1501L92.0141 30.108L91.2701 30.732V33H90.0101V23.88H91.2701V28.44ZM99.3772 26.412C100.225 26.412 100.893 26.676 101.381 27.204C101.869 27.724 102.113 28.436 102.113 29.34V30.036H97.7692C97.7852 30.7 97.9572 31.208 98.2852 31.56C98.6212 31.912 99.0892 32.088 99.6892 32.088C100.105 32.088 100.473 32.052 100.793 31.98C101.121 31.9 101.457 31.784 101.801 31.632V32.688C101.473 32.832 101.145 32.94 100.817 33.012C100.489 33.084 100.097 33.12 99.6412 33.12C99.0092 33.12 98.4532 32.996 97.9732 32.748C97.5012 32.5 97.1292 32.132 96.8572 31.644C96.5932 31.148 96.4612 30.54 96.4612 29.82C96.4612 29.092 96.5812 28.476 96.8212 27.972C97.0692 27.468 97.4092 27.084 97.8412 26.82C98.2812 26.548 98.7932 26.412 99.3772 26.412ZM99.3772 27.396C98.9212 27.396 98.5532 27.544 98.2732 27.84C98.0012 28.136 97.8412 28.556 97.7932 29.1H100.841C100.833 28.596 100.709 28.188 100.469 27.876C100.237 27.556 99.8732 27.396 99.3772 27.396ZM111.378 25.332H109.518V23.112H108.69V25.332H106.794V26.16H111.378V25.332ZM108.51 30.828C108.486 29.676 108.27 27.984 107.982 26.652L107.25 26.784C107.526 28.116 107.73 29.832 107.73 30.96L108.51 30.828ZM110.166 30.912C110.418 29.736 110.706 28.044 110.898 26.688L110.022 26.52C109.914 27.9 109.614 29.892 109.35 31.092C108.294 31.32 107.31 31.536 106.566 31.68L106.758 32.568C108.066 32.256 109.878 31.836 111.57 31.44L111.474 30.612L110.166 30.912ZM116.13 32.508H112.53V29.496H116.13V32.508ZM117.546 26.28V25.44H114.582V22.956H113.67V28.656H111.678V33.9H112.53V33.336H116.13V33.852H117.042V28.656H114.582V26.28H117.546Z" fill="white"/>
</g>
<defs>
<filter id="filter0_d_5_1002" x="0" y="0" width="143" height="64" filterUnits="userSpaceOnUse" color-interpolation-filters="sRGB">
<feFlood flood-opacity="0" result="BackgroundImageFix"/>
<feColorMatrix in="SourceAlpha" type="matrix" values="0 0 0 0 0 0 0 0 0 0 0 0 0 0 0 0 0 0 127 0" result="hardAlpha"/>
<feOffset dy="4"/>
<feGaussianBlur stdDeviation="6"/>
<feComposite in2="hardAlpha" operator="out"/>
<feColorMatrix type="matrix" values="0 0 0 0 0 0 0 0 0 0 0 0 0 0 0 0 0 0 0.15 0"/>
<feBlend mode="normal" in2="BackgroundImageFix" result="effect1_dropShadow_5_1002"/>
<feBlend mode="normal" in="SourceGraphic" in2="effect1_dropShadow_5_1002" result="shape"/>
</filter>
</defs>
</svg>
